<?xml version="1.0" encoding="UTF-8" standalone="no"?>
<!-- Created with Inkscape (http://www.inkscape.org/) -->

<svg
   width="79.432098mm"
   height="93.486908mm"
   viewBox="0 0 79.432098 93.486908"
   version="1.1"
   id="svg1"
   inkscape:version="1.3.2 (091e20e, 2023-11-25, custom)"
   sodipodi:docname="jonny-logo.svg"
   inkscape:export-filename="jonny-logo.png"
   inkscape:export-xdpi="96"
   inkscape:export-ydpi="96"
   xmlns:inkscape="http://www.inkscape.org/namespaces/inkscape"
   xmlns:sodipodi="http://sodipodi.sourceforge.net/DTD/sodipodi-0.dtd"
   xmlns="http://www.w3.org/2000/svg"
   xmlns:svg="http://www.w3.org/2000/svg">
  <sodipodi:namedview
     id="namedview1"
     pagecolor="#ffffff"
     bordercolor="#666666"
     borderopacity="1.0"
     inkscape:showpageshadow="2"
     inkscape:pageopacity="0.0"
     inkscape:pagecheckerboard="0"
     inkscape:deskcolor="#d1d1d1"
     inkscape:document-units="mm"
     inkscape:zoom="0.67704826"
     inkscape:cx="201.61044"
     inkscape:cy="309.43141"
     inkscape:window-width="1443"
     inkscape:window-height="942"
     inkscape:window-x="5764"
     inkscape:window-y="113"
     inkscape:window-maximized="0"
     inkscape:current-layer="g8" />
  <defs
     id="defs1" />
  <g
     inkscape:label="Layer 1"
     inkscape:groupmode="layer"
     id="layer1"
     transform="translate(-51.533289,-66.787689)">
    <g
       id="g8">
      <path
         style="fill:none;stroke:#000000;stroke-width:1.765;stroke-linecap:butt;stroke-linejoin:miter;stroke-opacity:1;stroke-dasharray:none"
         d="m 63.307893,148.5 c 3.15785,-10.76049 -3.00036,-21.8169 -1.383749,-32.28778 8.072304,-1.51755 17.068132,1.0067 25.627134,-0.25037 9.308165,0.16843 18.517872,-1.11583 27.726002,-2.09979 8.79705,0.74232 2.25736,13.60023 4.37687,19.94694 -3.24591,5.32672 8.62321,16.72209 -0.091,16.71693 -12.37284,-4.14398 -25.631758,-2.70107 -38.44369,-4.01992 -6.707416,-0.12376 -13.472482,-1.02231 -20.155772,-0.35071"
         id="path1" />
      <path
         style="fill:none;stroke:#000000;stroke-width:1.765;stroke-linecap:butt;stroke-linejoin:miter;stroke-opacity:1;stroke-dasharray:none"
         d="m 57.446052,117.23684 c 13.939872,-4.01487 25.511977,-14.2687 33.413268,-26.193331 1.071753,-5.606942 6.104078,-8.021742 5.415865,-0.703792 C 100.42581,103.43078 111.4254,113.37043 124.22829,117.8 l 1.77587,0.71518 1.784,0.67544"
         id="path2" />
      <path
         style="fill:#000000;fill-opacity:1;stroke:#000000;stroke-width:0.264583px;stroke-linecap:butt;stroke-linejoin:miter;stroke-opacity:1"
         d="m 85.192104,147.32763 c 3.715546,-6.31621 -1.785757,-15.93272 4.516137,-20.41619 11.368669,-4.67348 13.975499,9.10831 11.877009,17.27731 l -0.002,1.7645 0.0223,1.76517"
         id="path3" />
      <path
         style="fill:none;stroke:#000000;stroke-width:1.765;stroke-linecap:butt;stroke-linejoin:miter;stroke-opacity:1;stroke-dasharray:none"
         d="m 94.847806,66.800657 c 0.640395,6.501232 -0.09693,13.027844 0,19.539473"
         id="path4" />
      <path
         style="fill:none;stroke:#000000;stroke-width:1.765;stroke-linecap:butt;stroke-linejoin:miter;stroke-opacity:1;stroke-dasharray:none"
         d="m 87.536842,72.223023 c 4.562122,-0.11551 9.127636,0.05684 13.677628,0.390734"
         id="path5" />
      <path
         style="fill:none;stroke:#000000;stroke-width:3.365;stroke-linecap:round;stroke-linejoin:miter;stroke-dasharray:none;stroke-opacity:1"
         d="m 52.365789,155.925 c 4.740755,-6.53375 13.042597,-9.38269 20.867082,-9.49343 10.191177,-0.45461 20.367344,1.83784 30.542669,0.5491 9.83799,0.67249 20.62583,3.79224 26.35735,12.46143"
         id="path6" />
      <path
         style="fill:#000000;fill-opacity:1;stroke:#000000;stroke-width:0.264583px;stroke-linecap:butt;stroke-linejoin:miter;stroke-opacity:1"
         d="m 70.732893,122.3171 c 0.638845,3.69445 0.318718,7.45417 0.386694,11.18067 2.811889,0.6488 6.840216,0.5362 5.888914,-3.48025 -0.70385,-2.57717 1.742922,-8.14668 -2.266767,-8.19181 -1.319172,0.19489 -2.722798,-0.0235 -4.008841,0.49139 z"
         id="path7" />
      <path
         style="fill:#000000;fill-opacity:1;stroke:#000000;stroke-width:0.264583px;stroke-linecap:butt;stroke-linejoin:miter;stroke-opacity:1"
         d="m 104.73158,120.75395 c -0.0793,3.21647 -0.0944,6.45135 0.62892,9.5286 1.40358,1.93888 5.98724,1.48652 5.98878,-1.21465 -0.10533,-2.97399 0.65296,-6.14666 -1.05493,-8.67531 -1.87089,-1.41443 -4.89064,-0.57568 -7.12595,-0.81101"
         id="path8" />
    </g>
  </g>
</svg>
